<?xml version="1.0" encoding="UTF-8"?>
<svg xmlns="http://www.w3.org/2000/svg" width="15em" height="20em" viewBox="0 0 351.93 442.73">
<path fill="#222" d="m261.88,54.02c5.58,1,1.44-20.73,5.98-25.06,5.18,7.73.93,20.65,1.29,29.83-.37,5.08-.47,10.39-5.04,14.1-2.35,6.86.18,15.32-.1,22.65.07,1.23.83,2.41,1.79,5.01,36.15-18.83,33.23-37.64,37.09,13.55,2.27-10.99,1.31-23.43,1.83-34.74,0-2.19-1.11-4.79-2.54-6.51-3.72-4.47-2.31-9.61-2.23-14.42,1.1-7.55-.89-29.18,4.72-33.01,5.63,4.86-1.08,27.6,3.11,31.52,13.09-23.47,1.71-49.72,11.5-56.94,4.77,7.74.99,24.17,1.79,33.81-.92,9.35,1.26,6.82,5.37,13.45,4.92-10.22,9.27-3.52,8.45-20.35-.02-6.5.1-13,.21-19.49-.5-3.15,1.58-4.9,3.75-6.74,5.03,5.49.74,23.95,1.69,32.29.65,7.77,1.22,15.01.9,23,3.61,1.36,3.84-1.36,3.96-4.21,1.11-12.11-.41-24.7,2.78-36.48.58-.1,1.16-.19,1.74-.29,5.32,11.5-1.69,31.84-1.3,45.25.44,9.2-7.55,14.87-5.82,24.01,1.75,26.92,1.38,53.94,1.06,80.9.25,25.74-3.7,51.53-19.72,72.51-13.02,61.28-13.06,66.16-57.95,114.01-8.64,9.22,9.89,18.21-4.9,50.47,11.55.44,22.63,1.01,33.72,1.23,22.98-1.92,38.09,39.37,7.17,39.21-34.66.29-69.33-.3-103.99.14-4.71.1-8.38-1.28-10.73-4.92-4.65-9.42-37.66-13.48-46.41-8.38-34.4,13.17-76.95,18.42-109.97-.81-43.16-26.78-38.08-88.43-5-121.45,9.54-10.59,18.59-21.65,27.24-32.98,13.39-19.88-28.87-21.84-29.24-41.1-2.17-23.9,28.42-29.21,44.21-17.2,27.4,14.65,36.91,50.65,22.98,77.9-12.06,27.84-44.26,43.07-48.96,74.35-2.12,16.81,4.25,27.19,20.53,31.36,15.1,3.87,29.75,2.63,42.15-8.48,3.43-3.07,5.21-5.72,3.17-11.04-13.2-39.1,8.44-80.66,41-102.65,21.77-15.84,45.36-27.31,54.18-54.72-.95-9.66-16.01-15.59-25.22-15.57-6.86-.86-32.28-5.39-33.35-13.18.03-1.98,2.89-4.74,5.14-5.73,16.53-7.07,30.07-19.85,35.76-37.07,6.27-16.16,17.41-28.45,30.62-39.02,3.49-2.79,5.23-5.49,4.97-9.99-1.86-10.31,3.98-23.13-4.08-31.44-1.48-1.22-2.13-4.24-2.07-6.4.34-11.62,1.02-23.23,1.59-34.84-.39-2.09,1.32-3.29,2.55-4.67,4.3,4.31,1.33,19.3,1.73,25.82-.4,6.13-.13,6.77,7,6.53-.72-5.99.47-11.38,3.24-17.01,3.58-11.83-2.51-26.46,3.34-38.21.64.07,1.28.14,1.91.21,2.25,9.82.7,20.2.85,30.22-1.05,7.76,3.45,7.86,7.56,12.83,14.45-7.01,1.89-32.09,10.13-43.53,4.88,7.25,1.09,25.5,2.18,35.11.79,6.23,2.82,10.39,4.69,17.35Z"/>
<circle fill="#fff" cx="227.77" cy="183.52" r="17.5"/>
<circle fill="#fff" cx="271.77" cy="153.29" r="17.5"/>
<circle fill="#222" cx="228.22" cy="184.85" r="15"/>
<circle fill="#222" cx="272.22" cy="154.63" r="15"/>
</svg>
